<svg width="24" height="24" viewBox="0 0 24 24" fill="none" xmlns="http://www.w3.org/2000/svg">
<path d="M12.0002 23C9.49324 23 7.18224 22.161 5.33124 20.749L5.24824 20.684L5.22124 20.664C5.02324 20.508 4.83124 20.347 4.64424 20.179L4.60424 20.142C4.51277 20.0589 4.42276 19.9742 4.33424 19.888L4.12824 19.683C4.00763 19.5594 3.88993 19.4331 3.77524 19.304L3.76224 19.29C1.89452 17.1858 0.907716 14.4438 1.00624 11.632L1.00024 11.984C1.00046 11.7137 1.01046 11.4436 1.03024 11.174L1.03324 11.14C1.06301 10.7536 1.11308 10.3691 1.18324 9.988C1.48525 8.36932 2.14636 6.83896 3.11792 5.50951C4.08947 4.18007 5.34675 3.08538 6.79724 2.30601L6.45824 2.49701C6.68816 2.36206 6.92299 2.23564 7.16224 2.11801L7.21924 2.09101C7.49723 1.95665 7.78082 1.83421 8.06924 1.72401C9.3242 1.24406 10.6566 0.998657 12.0002 1.00001C14.8932 1.00001 17.5252 2.11701 19.4892 3.94301L19.6012 4.04901L19.6212 4.06801C19.7952 4.23501 19.9642 4.40801 20.1272 4.58701L20.1872 4.65401C21.8925 6.55164 22.8836 8.98396 22.9902 11.533L22.9722 11.219C23.0005 11.6017 23.0079 11.9856 22.9942 12.369L23.0002 12C23.0005 12.2769 22.9905 12.5538 22.9702 12.83L22.9672 12.86C22.9574 12.9862 22.9454 13.1122 22.9312 13.238C22.7044 15.2379 21.9336 17.1374 20.7026 18.7298C19.4716 20.3223 17.8275 21.5467 15.9492 22.27L15.8392 22.312C14.6109 22.7687 13.3107 23.0017 12.0002 23ZM14.2122 13.951L14.0142 14.019C11.1104 15.0455 8.51792 16.7989 6.48424 19.112C8.06102 20.3387 10.0025 21.0032 12.0002 21C13.2945 21.0018 14.5738 20.7234 15.7502 20.184C15.4722 18.0554 14.9563 15.9646 14.2122 13.951ZM20.0002 13C18.6772 13 17.3872 13.143 16.1462 13.414C16.8093 15.2398 17.2982 17.1242 17.6062 19.042C19.4717 17.5586 20.6716 15.395 20.9422 13.027C20.6286 13.0087 20.3144 12.9997 20.0002 13ZM12.5002 10.176C9.44817 11.2738 6.2422 11.884 3.00024 11.984V12C3.00024 14.171 3.76924 16.163 5.05024 17.718C7.32349 15.1559 10.2165 13.2205 13.4522 12.097C13.1587 11.4453 12.8408 10.8049 12.4992 10.177L12.5002 10.176ZM19.2962 6.73001L19.2372 6.77001C17.6981 7.80217 16.0692 8.69376 14.3702 9.43401C14.7362 10.118 15.0772 10.819 15.3922 11.534C17.211 11.1051 19.0808 10.9327 20.9472 11.022C20.7807 9.47199 20.2119 7.99243 19.2972 6.73001H19.2962ZM7.95824 3.95701L7.82024 4.02701C6.67243 4.62993 5.66815 5.4733 4.87587 6.49959C4.08359 7.52588 3.52194 8.71095 3.22924 9.97401C6.03512 9.85926 8.80929 9.33609 11.4642 8.42101C10.4437 6.82243 9.26943 5.32733 7.95824 3.95701ZM12.0002 3.00001C11.3287 2.99956 10.6592 3.07402 10.0042 3.22201C11.2572 4.60592 12.3825 6.10034 13.3662 7.68701C14.9589 7.00766 16.4874 6.1867 17.9332 5.23401C16.294 3.79103 14.1841 2.99658 12.0002 3.00001Z" fill="#B0B8BC"/>
</svg>
