<svg width="24" height="24" viewBox="0 0 24 24" fill="none" xmlns="http://www.w3.org/2000/svg">
<path fill-rule="evenodd" clip-rule="evenodd" d="M8.0625 1.5H15.9375C19.5613 1.5 22.5 4.43869 22.5 8.0625V15.9375C22.5 19.5613 19.5613 22.5 15.9375 22.5H8.0625C4.43869 22.5 1.5 19.5613 1.5 15.9375V8.0625C1.5 4.43869 4.43869 1.5 8.0625 1.5ZM15.9375 20.5312C18.4706 20.5312 20.5312 18.4706 20.5312 15.9375V8.0625C20.5312 5.52938 18.4706 3.46875 15.9375 3.46875H8.0625C5.52938 3.46875 3.46875 5.52938 3.46875 8.0625V15.9375C3.46875 18.4706 5.52938 20.5312 8.0625 20.5312H15.9375ZM6.75 12C6.75 9.10069 9.10069 6.75 12 6.75C14.8993 6.75 17.25 9.10069 17.25 12C17.25 14.8993 14.8993 17.25 12 17.25C9.10069 17.25 6.75 14.8993 6.75 12ZM8.71875 12C8.71875 13.8086 10.1914 15.2812 12 15.2812C13.8086 15.2812 15.2812 13.8086 15.2812 12C15.2812 10.1901 13.8086 8.71875 12 8.71875C10.1914 8.71875 8.71875 10.1901 8.71875 12ZM18.3435 6.35624C18.3435 6.7426 18.0303 7.0558 17.644 7.0558C17.2576 7.0558 16.9444 6.7426 16.9444 6.35624C16.9444 5.96988 17.2576 5.65668 17.644 5.65668C18.0303 5.65668 18.3435 5.96988 18.3435 6.35624Z" fill="#B0B8BC"/>
</svg>
