<svg width="24" height="24" viewBox="0 0 24 24" fill="none" xmlns="http://www.w3.org/2000/svg">
<path d="M11.9995 10H8.49951C7.30604 10 6.16144 9.5259 5.31753 8.68198C4.47362 7.83807 3.99951 6.69347 3.99951 5.5C3.99951 4.30653 4.47362 3.16193 5.31753 2.31802C6.16144 1.47411 7.30604 1 8.49951 1H11.9995C12.2647 1 12.5191 1.10536 12.7066 1.29289C12.8942 1.48043 12.9995 1.73478 12.9995 2V9C12.9995 9.26522 12.8942 9.51957 12.7066 9.70711C12.5191 9.89464 12.2647 10 11.9995 10ZM8.49951 3C7.83651 3.00006 7.20069 3.26348 6.7319 3.73232C6.26311 4.20115 5.99975 4.837 5.99975 5.5C5.99975 6.163 6.26311 6.79885 6.7319 7.26768C7.20069 7.73652 7.83651 7.99994 8.49951 8H10.9995V3H8.49951Z" fill="white"/>
<path d="M15.5005 10H12.0005C11.7353 10 11.4809 9.89464 11.2934 9.70711C11.1058 9.51957 11.0005 9.26522 11.0005 9V2C11.0005 1.73478 11.1058 1.48043 11.2934 1.29289C11.4809 1.10536 11.7353 1 12.0005 1H15.5005C16.694 1 17.8386 1.47411 18.6825 2.31802C19.5264 3.16193 20.0005 4.30653 20.0005 5.5C20.0005 6.69347 19.5264 7.83807 18.6825 8.68198C17.8386 9.5259 16.694 10 15.5005 10ZM13.0005 8H15.5005C16.1635 7.99994 16.7993 7.73652 17.2681 7.26768C17.7369 6.79885 18.0002 6.163 18.0002 5.5C18.0002 4.837 17.7369 4.20115 17.2681 3.73232C16.7993 3.26348 16.1635 3.00006 15.5005 3H13.0005V8Z" fill="white"/>
<path d="M15.5005 17C14.6105 17 13.7404 16.7361 13.0004 16.2416C12.2604 15.7471 11.6836 15.0443 11.343 14.2221C11.0024 13.3998 10.9133 12.495 11.087 11.6221C11.2606 10.7492 11.6892 9.94736 12.3185 9.31802C12.9478 8.68868 13.7497 8.2601 14.6226 8.08647C15.4955 7.91283 16.4003 8.00195 17.2226 8.34254C18.0448 8.68314 18.7476 9.25991 19.2421 9.99994C19.7366 10.74 20.0005 11.61 20.0005 12.5C19.9979 13.6927 19.5229 14.8357 18.6796 15.6791C17.8362 16.5224 16.6932 16.9974 15.5005 17ZM15.5005 10C15.006 10 14.5227 10.1466 14.1116 10.4213C13.7004 10.696 13.38 11.0865 13.1908 11.5433C13.0016 12.0001 12.9521 12.5028 13.0485 12.9877C13.145 13.4727 13.3831 13.9181 13.7327 14.2678C14.0824 14.6174 14.5278 14.8555 15.0128 14.952C15.4977 15.0484 16.0004 14.9989 16.4572 14.8097C16.914 14.6205 17.3045 14.3 17.5792 13.8889C17.8539 13.4778 18.0005 12.9945 18.0005 12.5C18.0005 11.837 17.7371 11.2011 17.2683 10.7322C16.7994 10.2634 16.1635 10 15.5005 10Z" fill="white"/>
<path d="M8.49951 24C7.30604 24 6.16144 23.5259 5.31753 22.682C4.47362 21.8381 3.99951 20.6935 3.99951 19.5C3.99951 18.3065 4.47362 17.1619 5.31753 16.318C6.16144 15.4741 7.30604 15 8.49951 15H11.9995C12.2647 15 12.5191 15.1054 12.7066 15.2929C12.8942 15.4804 12.9995 15.7348 12.9995 16V19.5C12.9969 20.6927 12.5219 21.8357 11.6786 22.6791C10.8352 23.5224 9.69217 23.9974 8.49951 24ZM8.49951 17C8.00506 17 7.52171 17.1466 7.11059 17.4213C6.69946 17.696 6.37903 18.0865 6.18981 18.5433C6.00059 19.0001 5.95109 19.5028 6.04755 19.9877C6.14401 20.4727 6.38211 20.9181 6.73174 21.2678C7.08138 21.6174 7.52683 21.8555 8.01179 21.952C8.49674 22.0484 8.99941 21.9989 9.45622 21.8097C9.91304 21.6205 10.3035 21.3 10.5782 20.8889C10.8529 20.4778 10.9995 19.9945 10.9995 19.5V17H8.49951Z" fill="white"/>
<path d="M11.9995 17H8.49951C7.30604 17 6.16144 16.5259 5.31753 15.682C4.47362 14.8381 3.99951 13.6935 3.99951 12.5C3.99951 11.3065 4.47362 10.1619 5.31753 9.31802C6.16144 8.47411 7.30604 8 8.49951 8H11.9995C12.2647 8 12.5191 8.10536 12.7066 8.29289C12.8942 8.48043 12.9995 8.73478 12.9995 9V16C12.9995 16.2652 12.8942 16.5196 12.7066 16.7071C12.5191 16.8946 12.2647 17 11.9995 17ZM8.49951 10C7.83651 10.0001 7.20069 10.2635 6.7319 10.7323C6.26311 11.2012 5.99975 11.837 5.99975 12.5C5.99975 13.163 6.26311 13.7988 6.7319 14.2677C7.20069 14.7365 7.83651 14.9999 8.49951 15H10.9995V10H8.49951Z" fill="white"/>
</svg>
